<?xml version="1.0" encoding="UTF-8" standalone="no"?>
<!-- Created with Inkscape (http://www.inkscape.org/) -->

<svg
   width="297mm"
   height="210mm"
   viewBox="0 0 297 210"
   version="1.1"
   id="svg1"
   inkscape:version="1.4 (86a8ad7, 2024-10-11)"
   sodipodi:docname="drawing.svg"
   xmlns:inkscape="http://www.inkscape.org/namespaces/inkscape"
   xmlns:sodipodi="http://sodipodi.sourceforge.net/DTD/sodipodi-0.dtd"
   xmlns="http://www.w3.org/2000/svg"
   xmlns:svg="http://www.w3.org/2000/svg">
  <sodipodi:namedview
     id="namedview1"
     pagecolor="#ffffff"
     bordercolor="#000000"
     borderopacity="0.25"
     inkscape:showpageshadow="2"
     inkscape:pageopacity="0.0"
     inkscape:pagecheckerboard="0"
     inkscape:deskcolor="#d1d1d1"
     inkscape:document-units="mm"
     inkscape:zoom="0.920955"
     inkscape:cx="827.94491"
     inkscape:cy="320.86258"
     inkscape:window-width="1920"
     inkscape:window-height="991"
     inkscape:window-x="3191"
     inkscape:window-y="-5"
     inkscape:window-maximized="1"
     inkscape:current-layer="layer1" />
  <defs
     id="defs1" />
  <g
     inkscape:label="Layer 1"
     inkscape:groupmode="layer"
     id="layer1">
    <g
       id="g1"
       transform="matrix(1.0281356,0,0,0.98374579,-0.673505,0.57637783)"
       inkscape:export-filename="g1.png"
       inkscape:export-xdpi="96"
       inkscape:export-ydpi="96">
      <path
         d="m 25.302217,37.08766 c 0.744197,0.863536 13.023469,14.148739 27.287273,29.493149 l 25.953916,27.898925 0.341091,-2.358122 c 0.713191,-4.849099 2.604691,-8.568957 6.108625,-12.023109 1.20933,-1.162456 3.069819,-2.590615 4.310144,-3.254875 4.248144,-2.225271 2.914779,-2.158845 41.520084,-2.059206 l 34.79126,0.09963 2.01554,0.730688 c 4.80628,1.760288 8.89937,5.446932 11.10097,9.963901 1.33335,2.75668 2.23258,5.978344 2.23258,8.137183 v 1.2621 h 20.37244 20.40344 L 207.32073,79.500668 C 198.82446,70.400305 191.8166,63.15987 190.26619,61.897775 185.86301,58.343983 180.09548,55.520878 173.98684,54.026293 171.22712,53.328819 170.4209,53.328819 122.97825,53.129542 89.892432,52.963476 74.233258,52.797412 73.11696,52.531708 64.89977,50.704993 59.256266,47.58297 52.279408,41.07322 50.077821,39.014014 47.194053,37.253724 44.527342,36.323759 43.100961,35.825565 41.302482,35.725925 33.364365,35.593074 l -9.426512,-0.132853 z"
         id="path3"
         style="fill:#0055d4;stroke:none;stroke-width:0.0320917"
         inkscape:export-filename="path3.png"
         inkscape:export-xdpi="96"
         inkscape:export-ydpi="96" />
      <path
         d="m 129.32721,92.373706 v 13.775284 h 15.76407 c 17.30274,0 17.73822,-0.0551 21.16392,-1.6806 5.48695,-2.64485 8.73848,-9.091672 7.4611,-14.904837 -0.81289,-3.664228 -4.03538,-7.769261 -7.374,-9.367193 -3.30957,-1.597932 -3.19345,-1.597932 -20.81555,-1.597932 h -16.19954 z"
         id="path7"
         style="fill:#0055d4;stroke:none;stroke-width:0.0282814" />
      <path
         d="m 48.220171,104.56556 4.175569,4.54584 h 3.973117 3.998423 v 21.21393 21.21393 h 4.934762 4.934763 V 130.32533 109.1114 h 8.148684 8.173992 l -4.175568,-4.54584 -4.175569,-4.54582 H 61.126473 44.044603 Z"
         id="path11"
         style="fill:#0044aa;stroke:none;stroke-width:0.0264047" />
      <path
         d="m 177.10447,100.18504 c -0.12728,0.1102 -0.22275,11.70897 -0.22275,25.7873 v 25.56692 h 6.04603 6.04602 v -10.0835 -10.05596 l 8.84631,0.0826 c 8.65536,0.0826 8.84629,0.0826 10.40553,0.77143 1.17739,0.4959 1.8138,1.01936 2.38659,1.92852 0.79553,1.23978 0.79553,1.29489 0.89099,9.28455 l 0.0954,8.07231 h 6.04603 6.04605 l -0.0954,-9.31209 c -0.0956,-7.96212 -0.19092,-9.44984 -0.66825,-10.49676 -0.85918,-1.90099 -1.90927,-2.89281 -4.16859,-3.91218 l -2.06837,-0.93672 1.3365,-0.57856 c 5.63234,-2.50709 8.46444,-8.87127 6.74608,-15.20791 -1.33648,-4.93154 -5.95055,-8.89881 -12.12387,-10.41409 -1.62287,-0.41325 -4.07311,-0.4959 -18.58357,-0.60611 -9.19635,-0.055 -16.80161,0 -16.96072,0.11021 z m 29.68919,8.92636 c 4.32768,0.49591 6.52334,2.3969 6.90519,5.97847 0.25458,2.50711 -0.50914,4.4632 -2.29112,5.81318 -2.25931,1.70812 -3.21394,1.84588 -13.36491,1.84588 h -8.90994 l -0.0954,-6.61213 c -0.0319,-3.63668 0,-6.74989 0.0637,-6.94274 0.22274,-0.44081 13.96952,-0.49591 17.69259,-0.0826 z"
         id="path12"
         style="fill:#ff0000;stroke:none;stroke-width:0.029609" />
      <path
         d="m 93.645295,112.66543 c -6.959282,1.21222 -11.742206,5.70296 -13.842643,12.9763 -0.50613,1.81834 -0.582048,2.61731 -0.582048,6.7499 0,5.1244 0.27837,6.80499 1.619614,9.91819 2.834325,6.55703 8.351136,10.05595 15.841847,10.11105 5.693985,0 9.540565,-1.51528 12.855715,-5.09685 3.46698,-3.74687 5.01066,-8.15496 5.08658,-14.51914 0.0254,-4.51829 -0.43021,-7.08049 -1.92329,-10.4692 -0.8351,-1.901 -1.41715,-2.78261 -3.08738,-4.54585 -3.34044,-3.60913 -6.52905,-5.0142 -11.792827,-5.2346 -1.594309,-0.0551 -3.492293,0 -4.175568,0.1102 z m 7.364205,9.20188 c 2.85965,1.59794 4.09965,4.38054 4.32741,9.56004 0.15184,3.60912 -0.12653,5.67541 -1.08816,7.98967 -1.21472,2.9479 -3.31517,4.40808 -6.70626,4.62848 -6.250701,0.41327 -9.46462,-4.21523 -9.009103,-12.89365 0.07592,-1.43264 0.328982,-3.25097 0.531435,-4.04994 0.480823,-1.62548 1.74615,-3.80197 2.707792,-4.57338 2.201666,-1.73569 6.731535,-2.06629 9.236886,-0.66122 z"
         id="path22"
         style="fill:#0044aa;stroke:none;stroke-width:0.0264047" />
      <path
         d="m 170.07084,112.61032 c -2.78371,0.41326 -5.11191,1.76324 -6.6809,3.93973 l -1.03756,1.43263 v -2.2316 -2.23158 h -4.30211 -4.3021 v 19.00987 19.00989 h 4.52986 4.55516 l 0.0759,-11.37838 c 0.10122,-12.50795 0.12653,-12.75591 1.74615,-14.8773 1.49307,-1.98364 4.90946,-3.14076 8.02213,-2.75505 l 1.31595,0.1653 v -5.15195 -5.1244 l -1.569,0.0276 c -0.88573,0.0276 -1.92329,0.11021 -2.3535,0.16531 z"
         id="path23"
         style="fill:#0044aa;stroke:none;stroke-width:0.0264047" />
      <path
         d="m 118.06604,126.52335 c 0,7.54885 0.10122,13.77529 0.25307,14.7671 0.7845,5.15195 3.5429,8.95392 7.69316,10.55187 1.1388,0.41325 2.15105,0.57855 3.97312,0.57855 4.58047,0 7.79439,-1.62548 10.1479,-5.1244 l 0.70857,-1.07447 v 2.64485 2.67241 h 4.42864 4.42863 V 132.52937 113.5195 h -4.55517 -4.55516 v 10.93757 c 0,11.84673 -0.15184,13.74773 -1.2147,15.89667 -1.67023,3.38871 -5.74458,4.76624 -9.08502,3.08565 -0.98696,-0.52345 -1.46778,-0.96426 -2.02453,-2.01118 l -0.70857,-1.32244 -0.0759,-13.30691 -0.0759,-13.27936 h -4.6564 -4.6817 z"
         id="path30"
         style="fill:#0044aa;stroke:none;stroke-width:0.0264047" />
      <path
         d="m 228.5857,118.25819 c 1.67044,2.6173 4.36469,6.77744 5.9543,9.22944 1.61655,2.45199 2.85591,4.62849 2.77508,4.82134 -0.0539,0.2204 -2.80203,4.54584 -6.089,9.6427 -3.26006,5.1244 -5.9543,9.36718 -5.9543,9.44983 0,0.0826 2.58647,0.13776 5.76569,0.13776 h 5.79264 l 3.12533,-5.64787 c 1.72432,-3.1132 3.23311,-5.59275 3.34087,-5.5101 0.13472,0.0551 1.58962,2.56219 3.26005,5.53765 1.69738,2.97546 3.20616,5.45501 3.36782,5.51011 0.16165,0.0826 2.8559,0.0826 6.00818,0.0551 l 5.71182,-0.0826 -6.30455,-9.67025 -6.30455,-9.67025 6.03512,-9.11922 c 3.31393,-5.01421 6.03512,-9.17434 6.03512,-9.25699 0,-0.11021 -2.50565,-0.1653 -5.57709,-0.1653 h -5.60405 l -3.07145,5.37236 c -1.69737,2.94791 -3.15227,5.37235 -3.26005,5.37235 -0.0808,0 -1.53572,-2.42444 -3.20616,-5.37235 l -3.0445,-5.37236 h -5.90041 -5.90042 z"
         id="path31"
         style="fill:#ff0000;stroke:none;stroke-width:0.0272449" />
      <path
         d="m 129.37139,92.373706 v 13.775284 h -15.76411 c -17.302744,0 -17.738208,-0.0551 -21.163903,-1.6806 -5.486912,-2.64485 -8.738427,-9.091672 -7.461044,-14.904837 0.812872,-3.664228 4.03535,-7.769261 7.373948,-9.367193 3.309564,-1.597932 3.193442,-1.597932 20.815529,-1.597932 h 16.19958 z"
         id="path1"
         style="fill:#ff0000;stroke:none;stroke-width:0.0282814" />
    </g>
  </g>
</svg>
